<svg width="3" height="3" viewBox="0 0 3 3" fill="none" xmlns="http://www.w3.org/2000/svg">
<g clip-path="url(#clip0_10_3681)">
<path d="M0.996639 0.641663H1.81331C1.94217 0.641663 2.04664 0.746129 2.04664 0.874996V1.06166C1.94361 1.06166 1.85997 1.14531 1.85997 1.24833C1.85997 1.35135 1.94361 1.435 2.04664 1.435V1.86666C2.04664 1.99544 1.94209 2.1 1.81331 2.1H0.996639C0.867859 2.1 0.763306 1.99544 0.763306 1.86666V1.435C0.86633 1.435 0.949972 1.35135 0.949972 1.24833C0.949972 1.14531 0.86633 1.06166 0.763306 1.06166V0.874996C0.763306 0.746216 0.867859 0.641663 0.996639 0.641663V0.641663" fill="white"/>
<path d="M1.40503 0.81665V1.98332V0.81665" fill="black"/>
<path d="M1.40503 0.81665V1.98332V0.81665" stroke="#DB2777" stroke-width="0.116667" stroke-linecap="round" stroke-dasharray="1.25 2.91"/>
</g>
<defs>
<clipPath id="clip0_10_3681">
<rect width="40.0598" height="39.9172" fill="white" transform="scale(0.0701452)"/>
</clipPath>
</defs>
</svg>
